<!--?xml version="1.0" standalone="no"?-->              <svg id="sw-js-blob-svg" viewBox="0 0 100 100" xmlns="http://www.w3.org/2000/svg" version="1.1">                    <defs>                         <linearGradient id="sw-gradient" x1="0" x2="1" y1="1" y2="0">                            <stop id="stop1" stop-color="rgba(182, 222, 203, 1)" offset="0%"></stop>                            <stop id="stop2" stop-color="rgba(182, 222, 203, 1)" offset="100%"></stop>                        </linearGradient>                    </defs>                <path fill="url(#sw-gradient)" d="M21.9,-38.9C27.9,-34.6,32,-27.7,34.8,-20.8C37.7,-13.9,39.3,-6.9,36.7,-1.5C34,3.9,27,7.7,23.9,14.1C20.8,20.6,21.5,29.6,18.2,32.7C14.8,35.9,7.4,33.2,0.4,32.5C-6.6,31.8,-13.3,33.2,-19.9,31.9C-26.4,30.6,-32.9,26.7,-34.9,20.9C-36.8,15.2,-34.3,7.6,-33.8,0.3C-33.4,-7.1,-35.1,-14.2,-32.4,-18.6C-29.6,-23,-22.5,-24.8,-16.4,-29.1C-10.2,-33.4,-5.1,-40.2,1.4,-42.7C8,-45.2,16,-43.3,21.9,-38.9Z" width="100%" height="100%" transform="translate(50 50)" stroke-width="0" style="transition: all 0.3s ease 0s;" stroke="url(#sw-gradient)"></path>              </svg>