<!--?xml version="1.0" standalone="no"?-->              <svg id="sw-js-blob-svg" viewBox="0 0 100 100" xmlns="http://www.w3.org/2000/svg" version="1.1">                    <defs>                         <linearGradient id="sw-gradient" x1="0" x2="1" y1="1" y2="0">                            <stop id="stop1" stop-color="rgba(182, 222, 203, 1)" offset="0%"></stop>                            <stop id="stop2" stop-color="rgba(182, 222, 203, 1)" offset="100%"></stop>                        </linearGradient>                    </defs>                <path fill="url(#sw-gradient)" d="M20.6,-33.8C25.2,-33,26.5,-24.5,30.9,-17.6C35.2,-10.7,42.5,-5.4,41.2,-0.8C39.8,3.8,29.7,7.5,24.7,13.4C19.8,19.2,20,27.1,16.7,31.4C13.5,35.7,6.7,36.4,1.1,34.5C-4.5,32.6,-9,28,-13.8,24.5C-18.5,21.1,-23.5,18.8,-27.7,14.9C-32,10.9,-35.6,5.5,-34.9,0.4C-34.3,-4.7,-29.3,-9.4,-25.5,-14.1C-21.7,-18.7,-18.9,-23.4,-14.8,-24.5C-10.8,-25.7,-5.4,-23.5,1.3,-25.7C8,-28,15.9,-34.7,20.6,-33.8Z" width="100%" height="100%" transform="translate(50 50)" stroke-width="0" style="transition: all 0.3s ease 0s;" stroke="url(#sw-gradient)"></path>              </svg>